<?xml version="1.0" encoding="UTF-8" standalone="no"?>
<!-- Created with Inkscape (http://www.inkscape.org/) -->

<svg
   width="7.7420001mm"
   height="7.7420001mm"
   viewBox="0 0 7.7420002 7.7420001"
   version="1.1"
   id="svg1"
   xml:space="preserve"
   inkscape:version="1.4.4 (dcaf3e7d9e, 2026-05-05)"
   sodipodi:docname="logo.svg"
   xmlns:inkscape="http://www.inkscape.org/namespaces/inkscape"
   xmlns:sodipodi="http://sodipodi.sourceforge.net/DTD/sodipodi-0.dtd"
   xmlns="http://www.w3.org/2000/svg"
   xmlns:svg="http://www.w3.org/2000/svg"><sodipodi:namedview
     id="namedview1"
     pagecolor="#ffffff"
     bordercolor="#000000"
     borderopacity="0.25"
     inkscape:showpageshadow="2"
     inkscape:pageopacity="0.0"
     inkscape:pagecheckerboard="0"
     inkscape:deskcolor="#d1d1d1"
     inkscape:document-units="mm"
     inkscape:zoom="8.0000004"
     inkscape:cx="8.3124996"
     inkscape:cy="28.187499"
     inkscape:window-width="1440"
     inkscape:window-height="872"
     inkscape:window-x="0"
     inkscape:window-y="0"
     inkscape:window-maximized="1"
     inkscape:current-layer="layer1"
     showguides="true" /><defs
     id="defs1" /><g
     inkscape:label="Camada 1"
     inkscape:groupmode="layer"
     id="layer1"
     transform="translate(-85.667356,-103.34688)"><g
       id="g3"
       transform="translate(1.4010218)"><path
         id="rect3"
         style="fill:#000000;fill-opacity:1;stroke:#000000;stroke-width:0.4;stroke-linecap:round;stroke-linejoin:round;stroke-dasharray:none;stroke-opacity:1;paint-order:stroke fill markers"
         d="m 87.260576,110.17562 c -0.197696,0.38734 -0.446049,0.71336 -0.446049,0.71336 0,0 0.479894,-0.16089 1.065294,-0.4361 l -0.02113,-0.31711 z" /><path
         id="path1"
         style="fill:#f3ba49;fill-opacity:1;stroke:#000000;stroke-width:0.4;stroke-linecap:round;stroke-linejoin:round;stroke-dasharray:none;stroke-opacity:1;paint-order:stroke fill markers"
         d="m 88.608545,103.54717 c -0.394927,-0.008 -0.65319,0.14573 -0.65319,0.14573 0,0 -2.252147,2.25877 -2.077393,3.6468 0.102984,0.81798 1.592103,0.96405 1.718758,1.7787 5.72e-4,0.004 0.0011,0.007 0.0016,0.0109 6.7e-5,0.004 7.39e-4,0.008 0.0016,0.0124 6.4e-5,3.4e-4 -6.9e-5,6.9e-4 0,0.001 7.9e-5,4e-4 -7.7e-5,6.4e-4 0,10e-4 0.0054,0.0516 0.0035,0.10659 -0.0041,0.16329 -0.0648,0.25292 -0.388239,0.40867 -0.429431,0.6656 -0.01019,0.0635 3.3e-4,0.15225 0.01654,0.23616 0.03933,0.0981 0.149823,0.21073 0.292489,0.27957 0.197149,0.0247 0.474215,0.044 0.636653,-0.014 0.223927,-0.0798 0.39574,-0.2905 0.561723,-0.4718 0.736648,-0.36342 1.418571,-0.8581 1.448491,-1.45211 0.05214,-1.03518 -1.293693,-0.77749 -1.285193,-1.41438 0.0099,-0.74126 1.539441,-1.60507 1.539441,-1.60507 0,0 0.250903,-0.76609 -0.655774,-1.52653 -0.415218,-0.34824 -0.804911,-0.45147 -1.112077,-0.45733 z"
         sodipodi:nodetypes="scsscssccsccccsscss" /><g
         id="g4"
         transform="matrix(1.2631514,-0.11910476,0.11910476,1.2631514,-35.427883,-17.892231)"><path
           id="path2"
           style="fill:#000000;fill-opacity:1;stroke-width:0.483465;stroke-linecap:round;stroke-linejoin:round;paint-order:stroke fill markers"
           d="m 86.777491,106.17012 c 0,0 -0.67564,0.66462 -0.68826,1.06015 l 0.564157,-0.0217 c -0.03651,-0.35733 0.124103,-1.03848 0.124103,-1.03848 z m -0.117819,1.08898 c -0.08833,0.0208 -0.208581,0.0401 -0.358391,0.0435 -0.09195,0.002 -0.158899,-0.001 -0.207877,-0.008 3.2e-4,0.002 4.03e-4,0.003 7.58e-4,0.005 0.09801,0.48245 1.086032,0.88666 1.086032,0.88666 0,0 -0.455034,-0.58372 -0.518854,-0.91868 -5.19e-4,-0.003 -0.0012,-0.006 -0.0017,-0.008 z" /></g></g></g></svg>
